<mxfile host="Electron" modified="2024-05-02T20:15:15.023Z" agent="Mozilla/5.0 (Windows NT 10.0; Win64; x64) AppleWebKit/537.36 (KHTML, like Gecko) draw.io/24.2.5 Chrome/120.0.6099.109 Electron/28.1.0 Safari/537.36" etag="0MNltJ7UnI8DWDGXkISZ" version="24.2.5" type="device">
  <diagram id="C5RBs43oDa-KdzZeNtuy" name="Page-1">
    <mxGraphModel dx="1098" dy="820" grid="1" gridSize="10" guides="1" tooltips="1" connect="1" arrows="1" fold="1" page="1" pageScale="1" pageWidth="827" pageHeight="1169" math="0" shadow="0">
      <root>
        <mxCell id="WIyWlLk6GJQsqaUBKTNV-0" />
        <mxCell id="WIyWlLk6GJQsqaUBKTNV-1" parent="WIyWlLk6GJQsqaUBKTNV-0" />
        <mxCell id="PKAW_K4Jf6zXpdJ3Aa0T-0" value="Main Class&amp;nbsp;" style="whiteSpace=wrap;html=1;aspect=fixed;" vertex="1" parent="WIyWlLk6GJQsqaUBKTNV-1">
          <mxGeometry x="110" y="330" width="70" height="70" as="geometry" />
        </mxCell>
        <mxCell id="PKAW_K4Jf6zXpdJ3Aa0T-1" value="" style="edgeStyle=orthogonalEdgeStyle;rounded=0;orthogonalLoop=1;jettySize=auto;html=1;entryX=0.5;entryY=1;entryDx=0;entryDy=0;" edge="1" parent="WIyWlLk6GJQsqaUBKTNV-1" source="PKAW_K4Jf6zXpdJ3Aa0T-28" target="PKAW_K4Jf6zXpdJ3Aa0T-19">
          <mxGeometry relative="1" as="geometry">
            <mxPoint x="530" y="160" as="targetPoint" />
          </mxGeometry>
        </mxCell>
        <mxCell id="PKAW_K4Jf6zXpdJ3Aa0T-2" value="Ledger Screen&amp;nbsp;&lt;div&gt;A] All Entries&amp;nbsp;&lt;/div&gt;&lt;div&gt;D] All Deposits&lt;/div&gt;&lt;div&gt;P] All Payments&lt;/div&gt;&lt;div&gt;R] Reports Screen&lt;/div&gt;&lt;div&gt;H] Home&amp;nbsp; &amp;nbsp; &amp;nbsp; &amp;nbsp; &amp;nbsp; &amp;nbsp;&amp;nbsp;&lt;/div&gt;" style="whiteSpace=wrap;html=1;aspect=fixed;" vertex="1" parent="WIyWlLk6GJQsqaUBKTNV-1">
          <mxGeometry x="450" y="275" width="160" height="160" as="geometry" />
        </mxCell>
        <mxCell id="PKAW_K4Jf6zXpdJ3Aa0T-3" value="Home Screen&lt;div&gt;D] Add Deposit&amp;nbsp;&lt;/div&gt;&lt;div&gt;P] Add Payment&lt;/div&gt;&lt;div&gt;L] Ledger Screen&lt;/div&gt;&lt;div&gt;X] Exit&amp;nbsp; &amp;nbsp; &amp;nbsp; &amp;nbsp; &amp;nbsp; &amp;nbsp; &amp;nbsp; &amp;nbsp;&amp;nbsp;&lt;/div&gt;" style="whiteSpace=wrap;html=1;aspect=fixed;" vertex="1" parent="WIyWlLk6GJQsqaUBKTNV-1">
          <mxGeometry x="250" y="280" width="150" height="150" as="geometry" />
        </mxCell>
        <mxCell id="PKAW_K4Jf6zXpdJ3Aa0T-4" style="edgeStyle=orthogonalEdgeStyle;rounded=0;orthogonalLoop=1;jettySize=auto;html=1;exitX=0.5;exitY=0;exitDx=0;exitDy=0;entryX=1;entryY=0.5;entryDx=0;entryDy=0;endArrow=none;endFill=0;" edge="1" parent="WIyWlLk6GJQsqaUBKTNV-1" source="PKAW_K4Jf6zXpdJ3Aa0T-5" target="PKAW_K4Jf6zXpdJ3Aa0T-32">
          <mxGeometry relative="1" as="geometry" />
        </mxCell>
        <mxCell id="PKAW_K4Jf6zXpdJ3Aa0T-5" value="Reports Screen&amp;nbsp;&lt;div&gt;1] Month to day&lt;/div&gt;&lt;div&gt;2] Previous Month&lt;/div&gt;&lt;div&gt;3] Year to Day&lt;/div&gt;&lt;div&gt;4] Previous Year&lt;/div&gt;&lt;div&gt;5]Search vendor&lt;/div&gt;&lt;div&gt;0] Back to reports&lt;/div&gt;" style="whiteSpace=wrap;html=1;aspect=fixed;" vertex="1" parent="WIyWlLk6GJQsqaUBKTNV-1">
          <mxGeometry x="680" y="283.75" width="142.5" height="142.5" as="geometry" />
        </mxCell>
        <mxCell id="PKAW_K4Jf6zXpdJ3Aa0T-6" value="CSV FILE" style="shape=callout;whiteSpace=wrap;html=1;perimeter=calloutPerimeter;" vertex="1" parent="WIyWlLk6GJQsqaUBKTNV-1">
          <mxGeometry y="90" width="120" height="80" as="geometry" />
        </mxCell>
        <mxCell id="PKAW_K4Jf6zXpdJ3Aa0T-7" value="CSV Reader" style="ellipse;whiteSpace=wrap;html=1;aspect=fixed;" vertex="1" parent="WIyWlLk6GJQsqaUBKTNV-1">
          <mxGeometry x="10" y="530" width="90" height="90" as="geometry" />
        </mxCell>
        <mxCell id="PKAW_K4Jf6zXpdJ3Aa0T-8" value="" style="endArrow=classic;html=1;rounded=0;exitX=0;exitY=0;exitDx=60;exitDy=80;exitPerimeter=0;" edge="1" parent="WIyWlLk6GJQsqaUBKTNV-1" source="PKAW_K4Jf6zXpdJ3Aa0T-6" target="PKAW_K4Jf6zXpdJ3Aa0T-7">
          <mxGeometry relative="1" as="geometry">
            <mxPoint x="650" y="340" as="sourcePoint" />
            <mxPoint x="750" y="340" as="targetPoint" />
          </mxGeometry>
        </mxCell>
        <mxCell id="PKAW_K4Jf6zXpdJ3Aa0T-9" value="" style="shape=message;html=1;outlineConnect=0;" vertex="1" parent="PKAW_K4Jf6zXpdJ3Aa0T-8">
          <mxGeometry width="20" height="14" relative="1" as="geometry">
            <mxPoint x="-10" y="-7" as="offset" />
          </mxGeometry>
        </mxCell>
        <mxCell id="PKAW_K4Jf6zXpdJ3Aa0T-10" style="edgeStyle=orthogonalEdgeStyle;rounded=0;orthogonalLoop=1;jettySize=auto;html=1;entryX=0.002;entryY=0.569;entryDx=0;entryDy=0;entryPerimeter=0;" edge="1" parent="WIyWlLk6GJQsqaUBKTNV-1" source="PKAW_K4Jf6zXpdJ3Aa0T-0" target="PKAW_K4Jf6zXpdJ3Aa0T-3">
          <mxGeometry relative="1" as="geometry" />
        </mxCell>
        <mxCell id="PKAW_K4Jf6zXpdJ3Aa0T-11" value="" style="endArrow=none;html=1;rounded=0;endFill=0;" edge="1" parent="WIyWlLk6GJQsqaUBKTNV-1">
          <mxGeometry relative="1" as="geometry">
            <mxPoint x="100" y="570" as="sourcePoint" />
            <mxPoint x="300" y="570" as="targetPoint" />
          </mxGeometry>
        </mxCell>
        <mxCell id="PKAW_K4Jf6zXpdJ3Aa0T-12" value="" style="shape=message;html=1;outlineConnect=0;" vertex="1" parent="PKAW_K4Jf6zXpdJ3Aa0T-11">
          <mxGeometry width="20" height="14" relative="1" as="geometry">
            <mxPoint x="-10" y="-7" as="offset" />
          </mxGeometry>
        </mxCell>
        <mxCell id="PKAW_K4Jf6zXpdJ3Aa0T-13" value="" style="endArrow=classic;html=1;rounded=0;entryX=0.5;entryY=1;entryDx=0;entryDy=0;" edge="1" parent="WIyWlLk6GJQsqaUBKTNV-1" source="PKAW_K4Jf6zXpdJ3Aa0T-34" target="PKAW_K4Jf6zXpdJ3Aa0T-3">
          <mxGeometry width="50" height="50" relative="1" as="geometry">
            <mxPoint x="325" y="570" as="sourcePoint" />
            <mxPoint x="350" y="520" as="targetPoint" />
          </mxGeometry>
        </mxCell>
        <mxCell id="PKAW_K4Jf6zXpdJ3Aa0T-14" value="" style="endArrow=classic;html=1;rounded=0;entryX=0.5;entryY=1;entryDx=0;entryDy=0;" edge="1" parent="WIyWlLk6GJQsqaUBKTNV-1" source="PKAW_K4Jf6zXpdJ3Aa0T-24" target="PKAW_K4Jf6zXpdJ3Aa0T-2">
          <mxGeometry width="50" height="50" relative="1" as="geometry">
            <mxPoint x="530" y="570" as="sourcePoint" />
            <mxPoint x="365" y="430" as="targetPoint" />
          </mxGeometry>
        </mxCell>
        <mxCell id="PKAW_K4Jf6zXpdJ3Aa0T-15" value="" style="endArrow=classic;html=1;rounded=0;entryX=0.5;entryY=1;entryDx=0;entryDy=0;" edge="1" parent="WIyWlLk6GJQsqaUBKTNV-1" source="PKAW_K4Jf6zXpdJ3Aa0T-26" target="PKAW_K4Jf6zXpdJ3Aa0T-5">
          <mxGeometry width="50" height="50" relative="1" as="geometry">
            <mxPoint x="751" y="570" as="sourcePoint" />
            <mxPoint x="751" y="430" as="targetPoint" />
          </mxGeometry>
        </mxCell>
        <mxCell id="PKAW_K4Jf6zXpdJ3Aa0T-16" value="" style="endArrow=none;html=1;rounded=0;" edge="1" parent="WIyWlLk6GJQsqaUBKTNV-1">
          <mxGeometry width="50" height="50" relative="1" as="geometry">
            <mxPoint x="300" y="570" as="sourcePoint" />
            <mxPoint x="750" y="570" as="targetPoint" />
          </mxGeometry>
        </mxCell>
        <mxCell id="PKAW_K4Jf6zXpdJ3Aa0T-17" value="" style="endArrow=classic;startArrow=classic;html=1;rounded=0;exitX=1;exitY=0.5;exitDx=0;exitDy=0;entryX=0;entryY=0.5;entryDx=0;entryDy=0;" edge="1" parent="WIyWlLk6GJQsqaUBKTNV-1" source="PKAW_K4Jf6zXpdJ3Aa0T-3" target="PKAW_K4Jf6zXpdJ3Aa0T-2">
          <mxGeometry width="50" height="50" relative="1" as="geometry">
            <mxPoint x="400" y="500" as="sourcePoint" />
            <mxPoint x="450" y="450" as="targetPoint" />
          </mxGeometry>
        </mxCell>
        <mxCell id="PKAW_K4Jf6zXpdJ3Aa0T-18" value="" style="endArrow=classic;startArrow=classic;html=1;rounded=0;exitX=1;exitY=0.5;exitDx=0;exitDy=0;entryX=0;entryY=0.5;entryDx=0;entryDy=0;" edge="1" parent="WIyWlLk6GJQsqaUBKTNV-1" source="PKAW_K4Jf6zXpdJ3Aa0T-2" target="PKAW_K4Jf6zXpdJ3Aa0T-5">
          <mxGeometry width="50" height="50" relative="1" as="geometry">
            <mxPoint x="680" y="370" as="sourcePoint" />
            <mxPoint x="730" y="320" as="targetPoint" />
          </mxGeometry>
        </mxCell>
        <mxCell id="PKAW_K4Jf6zXpdJ3Aa0T-19" value="Transaction Class" style="shape=hexagon;perimeter=hexagonPerimeter2;whiteSpace=wrap;html=1;fixedSize=1;" vertex="1" parent="WIyWlLk6GJQsqaUBKTNV-1">
          <mxGeometry x="470" y="80" width="120" height="70" as="geometry" />
        </mxCell>
        <mxCell id="PKAW_K4Jf6zXpdJ3Aa0T-20" style="edgeStyle=orthogonalEdgeStyle;rounded=0;orthogonalLoop=1;jettySize=auto;html=1;" edge="1" parent="WIyWlLk6GJQsqaUBKTNV-1" source="PKAW_K4Jf6zXpdJ3Aa0T-32">
          <mxGeometry relative="1" as="geometry">
            <mxPoint x="571" y="150" as="targetPoint" />
            <Array as="points" />
          </mxGeometry>
        </mxCell>
        <mxCell id="PKAW_K4Jf6zXpdJ3Aa0T-21" value="" style="endArrow=classic;html=1;rounded=0;entryX=0;entryY=0;entryDx=120;entryDy=25;entryPerimeter=0;exitX=0;exitY=0.5;exitDx=0;exitDy=0;" edge="1" parent="WIyWlLk6GJQsqaUBKTNV-1" source="PKAW_K4Jf6zXpdJ3Aa0T-19" target="PKAW_K4Jf6zXpdJ3Aa0T-6">
          <mxGeometry relative="1" as="geometry">
            <mxPoint x="220" y="140" as="sourcePoint" />
            <mxPoint x="320" y="140" as="targetPoint" />
          </mxGeometry>
        </mxCell>
        <mxCell id="PKAW_K4Jf6zXpdJ3Aa0T-22" value="" style="shape=message;html=1;outlineConnect=0;" vertex="1" parent="PKAW_K4Jf6zXpdJ3Aa0T-21">
          <mxGeometry width="20" height="14" relative="1" as="geometry">
            <mxPoint x="-10" y="-7" as="offset" />
          </mxGeometry>
        </mxCell>
        <mxCell id="PKAW_K4Jf6zXpdJ3Aa0T-23" value="" style="endArrow=none;html=1;rounded=0;entryX=0.5;entryY=1;entryDx=0;entryDy=0;endFill=0;" edge="1" parent="WIyWlLk6GJQsqaUBKTNV-1" target="PKAW_K4Jf6zXpdJ3Aa0T-24">
          <mxGeometry width="50" height="50" relative="1" as="geometry">
            <mxPoint x="530" y="570" as="sourcePoint" />
            <mxPoint x="530" y="435" as="targetPoint" />
          </mxGeometry>
        </mxCell>
        <mxCell id="PKAW_K4Jf6zXpdJ3Aa0T-24" value="" style="shape=message;html=1;outlineConnect=0;" vertex="1" parent="WIyWlLk6GJQsqaUBKTNV-1">
          <mxGeometry x="519.9982352941178" y="480" width="20" height="14" as="geometry" />
        </mxCell>
        <mxCell id="PKAW_K4Jf6zXpdJ3Aa0T-25" value="" style="endArrow=none;html=1;rounded=0;entryX=0.5;entryY=1;entryDx=0;entryDy=0;endFill=0;" edge="1" parent="WIyWlLk6GJQsqaUBKTNV-1" target="PKAW_K4Jf6zXpdJ3Aa0T-26">
          <mxGeometry width="50" height="50" relative="1" as="geometry">
            <mxPoint x="751" y="570" as="sourcePoint" />
            <mxPoint x="751" y="426" as="targetPoint" />
          </mxGeometry>
        </mxCell>
        <mxCell id="PKAW_K4Jf6zXpdJ3Aa0T-26" value="" style="shape=message;html=1;outlineConnect=0;" vertex="1" parent="WIyWlLk6GJQsqaUBKTNV-1">
          <mxGeometry x="741.2482352941179" y="480" width="20" height="14" as="geometry" />
        </mxCell>
        <mxCell id="PKAW_K4Jf6zXpdJ3Aa0T-27" value="" style="edgeStyle=orthogonalEdgeStyle;rounded=0;orthogonalLoop=1;jettySize=auto;html=1;entryX=0.5;entryY=1;entryDx=0;entryDy=0;endArrow=none;endFill=0;" edge="1" parent="WIyWlLk6GJQsqaUBKTNV-1" source="PKAW_K4Jf6zXpdJ3Aa0T-2" target="PKAW_K4Jf6zXpdJ3Aa0T-28">
          <mxGeometry relative="1" as="geometry">
            <mxPoint x="530" y="275" as="sourcePoint" />
            <mxPoint x="530" y="150" as="targetPoint" />
          </mxGeometry>
        </mxCell>
        <mxCell id="PKAW_K4Jf6zXpdJ3Aa0T-28" value="" style="shape=message;html=1;outlineConnect=0;" vertex="1" parent="WIyWlLk6GJQsqaUBKTNV-1">
          <mxGeometry x="519.9982352941178" y="200" width="20" height="14" as="geometry" />
        </mxCell>
        <mxCell id="PKAW_K4Jf6zXpdJ3Aa0T-29" value="" style="edgeStyle=orthogonalEdgeStyle;rounded=0;orthogonalLoop=1;jettySize=auto;html=1;endArrow=none;endFill=0;" edge="1" parent="WIyWlLk6GJQsqaUBKTNV-1" source="PKAW_K4Jf6zXpdJ3Aa0T-3" target="PKAW_K4Jf6zXpdJ3Aa0T-30">
          <mxGeometry relative="1" as="geometry">
            <mxPoint x="325" y="280" as="sourcePoint" />
            <mxPoint x="491" y="150" as="targetPoint" />
            <Array as="points">
              <mxPoint x="325" y="230" />
            </Array>
          </mxGeometry>
        </mxCell>
        <mxCell id="PKAW_K4Jf6zXpdJ3Aa0T-30" value="" style="shape=message;html=1;outlineConnect=0;" vertex="1" parent="WIyWlLk6GJQsqaUBKTNV-1">
          <mxGeometry x="414.99823529411776" y="220" width="20" height="14" as="geometry" />
        </mxCell>
        <mxCell id="PKAW_K4Jf6zXpdJ3Aa0T-31" style="edgeStyle=orthogonalEdgeStyle;rounded=0;orthogonalLoop=1;jettySize=auto;html=1;entryX=0.194;entryY=1.026;entryDx=0;entryDy=0;entryPerimeter=0;" edge="1" parent="WIyWlLk6GJQsqaUBKTNV-1" source="PKAW_K4Jf6zXpdJ3Aa0T-30" target="PKAW_K4Jf6zXpdJ3Aa0T-19">
          <mxGeometry relative="1" as="geometry">
            <mxPoint x="494" y="170" as="targetPoint" />
          </mxGeometry>
        </mxCell>
        <mxCell id="PKAW_K4Jf6zXpdJ3Aa0T-32" value="" style="shape=message;html=1;outlineConnect=0;" vertex="1" parent="WIyWlLk6GJQsqaUBKTNV-1">
          <mxGeometry x="659.9982352941179" y="220" width="20" height="14" as="geometry" />
        </mxCell>
        <mxCell id="PKAW_K4Jf6zXpdJ3Aa0T-33" value="" style="endArrow=classic;html=1;rounded=0;entryX=0.5;entryY=1;entryDx=0;entryDy=0;" edge="1" parent="WIyWlLk6GJQsqaUBKTNV-1" target="PKAW_K4Jf6zXpdJ3Aa0T-34">
          <mxGeometry width="50" height="50" relative="1" as="geometry">
            <mxPoint x="325" y="570" as="sourcePoint" />
            <mxPoint x="325" y="430" as="targetPoint" />
          </mxGeometry>
        </mxCell>
        <mxCell id="PKAW_K4Jf6zXpdJ3Aa0T-34" value="" style="shape=message;html=1;outlineConnect=0;" vertex="1" parent="WIyWlLk6GJQsqaUBKTNV-1">
          <mxGeometry x="314.99823529411776" y="480" width="20" height="14" as="geometry" />
        </mxCell>
        <mxCell id="PKAW_K4Jf6zXpdJ3Aa0T-35" value="Start" style="text;html=1;align=center;verticalAlign=middle;resizable=0;points=[];autosize=1;strokeColor=none;fillColor=none;" vertex="1" parent="WIyWlLk6GJQsqaUBKTNV-1">
          <mxGeometry x="120" y="300" width="50" height="30" as="geometry" />
        </mxCell>
      </root>
    </mxGraphModel>
  </diagram>
</mxfile>
